# xmcd
#
# Track frame offsets: 
#        150
#        11845
#        26125
#        39439
#        47456
#        58791
#        66039
#        76229
#        88013
#        98821
#        113603
#        119942
#        138408
#        145695
#        153487
#        164201
#        171645
#        178957
#        190003
#        197849
#        206466
#        211529
#        219763
#        226497
#        234014
#        242101
#        248838
#        255942
#        262823
#        272579
#
# Disc length: 3798 seconds
#
# Revision: 0
# Processed by: cddbd v1.5.2PL0 Copyright (c) Steve Scherf et al.
# Submitted via: ExactAudioCopy v1.0b3
#
DISCID=a30ed41e
DTITLE=Various Artist - Appalachian Songs of Faith
DYEAR=2014
DGENRE=Bluegrass
TTITLE0=Red Smiley - Prayer Bells of Heaven
TTITLE1=Jim Greer - Preachin', Prayin' and Singin' 
TTITLE2=Marksmen Quartet - God Put a Rainbow in the Clouds
TTITLE3=Hylo Brown - No Hidin' Place Down Here 
TTITLE4=Reno and Harrell - The Great Speckled Bird
TTITLE5=Red Smiley - When Our Lord Shall Come Again
TTITLE6=J.D. Jarvis - Take Your Shoes Off Moses
TTITLE7=Jim Greer - Leaning on the Everlasting Arms
TTITLE8=Hylo Brown - Save Me as I Kneel and Pray
TTITLE9=Red White - Rank Strangers
TTITLE10=Red Smiley - The Old Gospel Ship
TTITLE11=Jim Greer - He Will Set Your Fields on Fire
TTITLE12=Rusty York - Where the Soul of Man Never Dies
TTITLE13=Hylo Brown - If I Could Hear My Mother Pray Again
TTITLE14=Frosty Mountain Boys - Wings of a Dove
TTITLE15=Red Smiley - I'll Be No Stranger There
TTITLE16=Mac Martin  - I'll Be a Friend
TTITLE17=J.D. Jarvis - Life's Railway to Heaven
TTITLE18=Hylo Brown - Wait for the Light to Shine
TTITLE19=Red Smiley - The Man of Galilee
TTITLE20=Lee Moore - I Believe That Good Old Bible
TTITLE21=Red White - When the Angels Carry Me Home
TTITLE22=J.D. Jarvis - I'll Meet You in Church on Sunday Morning
TTITLE23=Jim Greer - You Go to Your Church
TTITLE24=Hylo Brown - Sweeter then the Flowers
TTITLE25=Rusty York - City on the Hill
TTITLE26=Red White - Crying Holy Unto the Lord
TTITLE27=Lee Moore - Heavenlly Cannonball
TTITLE28=J.D. Jarvis - Palms of Victory
TTITLE29=Frosty Mountain Boys - Voice of My Savior
EXTD=
EXTT0=
EXTT1=
EXTT2=
EXTT3=
EXTT4=
EXTT5=
EXTT6=
EXTT7=
EXTT8=
EXTT9=
EXTT10=
EXTT11=
EXTT12=
EXTT13=
EXTT14=
EXTT15=
EXTT16=
EXTT17=
EXTT18=
EXTT19=
EXTT20=
EXTT21=
EXTT22=
EXTT23=
EXTT24=
EXTT25=
EXTT26=
EXTT27=
EXTT28=
EXTT29=
PLAYORDER=
